<svg width="160" height="191" viewBox="0 0 160 191" xmlns="http://www.w3.org/2000/svg">
  <path d="M3.35006 123.566L3.34945 123.563C1.06359 112.376 0.750222 91.9759 1.14447 72.3498C1.53792 52.7639 2.63167
  34.0788 3.123 26.3931C3.22155 24.8514 4.51274 23.6431 6.12825 23.5996C43.3836 22.5962 69.9078 6.94898 77.9383
  1.59131L77.3837 0.7601L77.9383 1.59131C79.1119 0.808294 80.66 0.808108 81.8344 1.59073C89.8747 6.94897 116.457
  22.5991 154.033 23.5999C155.655 23.6431 156.95 24.8613 157.041 26.4105C157.494 34.1373 158.504 52.9068 158.867
  72.523C159.23 92.1702 158.942 112.542 156.833 123.562C155.692 128.777 151.258 135.022 144.846 141.645C138.465 148.236
  130.264 155.064 121.822 161.444C104.942 174.2 87.1941 185.087 81.3595 188.589C80.4371 189.142 79.3346 189.142 78.4124
  188.589C72.5794 185.087 54.8422 174.2 38.0184 161.444C29.6046 155.065 21.4442 148.238 15.1202 141.648C8.75887 135.02
  4.3982 128.776 3.35006 123.566ZM97 76.4813C97 67.2948 89.4152 59.8818 80.101 59.8818C70.7871 59.8818 63.2023 67.2956
  63.2023 76.4813C63.2023 81.5733 65.5383 86.1262 69.2052 89.1671C70.4311 90.1837 71.0368 91.668 70.672 92.9824L64.44
  115.44C63.5568 118.622 65.9558 121.765 69.2585 121.765H90.6985C94.0011 121.765 96.4002 118.622 95.517 115.44L89.3279
  93.1353C88.9589 91.8055 89.5832 90.3042 90.8367 89.2903C94.594 86.2514 97 81.6461 97 76.4813Z"
        fill="url(#paint0_linear)" stroke="url(#paint1_linear)" stroke-width="2"/>
  <linearGradient id="paint0_linear" x1="80" y1="-0.997188" x2="80" y2="190.628" gradientUnits="userSpaceOnUse">
    <stop stop-color="#3C39EC"/>
    <stop offset="1" stop-color="#3C39EC" stop-opacity="0"/>
  </linearGradient>
  <linearGradient id="paint1_linear" x1="160" y1="189.63" x2="-6.632" y2="-0.321963" gradientUnits="userSpaceOnUse">
    <stop stop-color="#3C39EC"/>
    <stop offset="1" stop-color="#3C39EC" stop-opacity="0"/>
  </linearGradient>
</svg>